<?xml version="1.0" ?><!DOCTYPE svg  PUBLIC '-//W3C//DTD SVG 1.1//EN'  'http://www.w3.org/Graphics/SVG/1.1/DTD/svg11.dtd'><svg height="43.3492mm" style="shape-rendering:geometricPrecision; text-rendering:geometricPrecision; image-rendering:optimizeQuality; fill-rule:evenodd; clip-rule:evenodd" version="1.1" viewBox="0 0 4335 4335" width="43.3492mm" xml:space="preserve" xmlns="http://www.w3.org/2000/svg" xmlns:xlink="http://www.w3.org/1999/xlink"><defs><style type="text/css">
   <![CDATA[
    .fil1 {fill:#BCBCBC;fill-rule:nonzero}
    .fil0 {fill:url(#id0)}
    .fil2 {fill:url(#id1);fill-rule:nonzero}
   ]]>
  </style><linearGradient gradientUnits="userSpaceOnUse" id="id0" x1="2170.9" x2="2170.9" y1="4.27" y2="4339.19"><stop offset="0" style="stop-color:#FF9836"/><stop offset="1" style="stop-color:#EB5E00"/></linearGradient><linearGradient gradientUnits="userSpaceOnUse" id="id1" x1="2226.73" x2="2226.73" y1="777.75" y2="3303.16"><stop offset="0" style="stop-color:#FEFEFE"/><stop offset="1" style="stop-color:whitesmoke"/></linearGradient></defs><g id="Warstwa_x0020_1"><rect class="fil0" height="4335" id="Prostokąt_x0020_3" width="4335" x="3" y="4"/><path class="fil1" d="M970 1313c1120,0 2030,916 2030,2041l484 0c0,-1393 -1128,-2525 -2514,-2525l0 484zm-1 858c314,0 609,123 831,346 222,223 345,521 345,837l484 0c0,-919 -745,-1667 -1660,-1667l0 484zm670 845c0,185 -150,335 -335,335 -185,0 -335,-150 -335,-335 0,-185 150,-335 335,-335 185,0 335,150 335,335z"/><path class="fil2" d="M970 1262c1120,0 2030,916 2030,2041l484 0c0,-1393 -1128,-2525 -2514,-2525l0 484zm-1 858c314,0 609,123 831,346 222,223 345,521 345,837l484 0c0,-919 -745,-1667 -1660,-1667l0 484zm670 845c0,185 -150,335 -335,335 -185,0 -335,-150 -335,-335 0,-185 150,-335 335,-335 185,0 335,150 335,335z"/></g></svg>